<svg width="600" height="400" viewBox="0 0 600 400" xmlns="http://www.w3.org/2000/svg">
  <defs>
    <linearGradient id="bg" x1="0%" y1="0%" x2="100%" y2="100%">
      <stop offset="0%" stop-color="#ffffff"/>
      <stop offset="100%" stop-color="#f8fafc"/>
    </linearGradient>
    <linearGradient id="primary" x1="0%" y1="0%" x2="100%" y2="0%">
      <stop offset="0%" stop-color="#3b82f6"/>
      <stop offset="100%" stop-color="#1d4ed8"/>
    </linearGradient>
    <linearGradient id="success" x1="0%" y1="0%" x2="100%" y2="0%">
      <stop offset="0%" stop-color="#10b981"/>
      <stop offset="100%" stop-color="#059669"/>
    </linearGradient>
  </defs>
  
  <!-- Background -->
  <rect width="600" height="400" fill="url(#bg)" stroke="#e2e8f0" stroke-width="1"/>
  
  <!-- Header -->
  <rect width="600" height="60" fill="#ffffff" stroke="#e2e8f0" stroke-width="0 0 1 0"/>
  <circle cx="30" cy="30" r="15" fill="url(#primary)"/>
  <text x="35" y="35" font-family="Arial, sans-serif" font-size="12" font-weight="bold" fill="white" text-anchor="middle">T</text>
  <text x="55" y="25" font-family="Arial, sans-serif" font-size="16" font-weight="bold" fill="#1e293b">TaskFlow Pro</text>
  <text x="55" y="42" font-family="Arial, sans-serif" font-size="12" fill="#64748b">Team Productivity Suite</text>
  
  <!-- Credits Widget (GrowthKit) -->
  <rect x="420" y="15" width="160" height="30" rx="15" fill="url(#success)" opacity="0.1"/>
  <circle cx="440" cy="30" r="8" fill="url(#success)"/>
  <text x="445" y="34" font-family="Arial, sans-serif" font-size="10" font-weight="bold" fill="white" text-anchor="middle">24</text>
  <text x="455" y="35" font-family="Arial, sans-serif" font-size="12" font-weight="medium" fill="#059669">Credits Available</text>
  
  <!-- Main Content Area -->
  <rect x="20" y="80" width="560" height="280" rx="8" fill="#ffffff" stroke="#e2e8f0"/>
  
  <!-- Project Cards -->
  <rect x="40" y="100" width="160" height="120" rx="6" fill="#f8fafc" stroke="#e2e8f0"/>
  <rect x="40" y="100" width="160" height="30" rx="6 6 0 0" fill="url(#primary)"/>
  <text x="120" y="118" font-family="Arial, sans-serif" font-size="12" font-weight="bold" fill="white" text-anchor="middle">Web Redesign</text>
  <text x="50" y="145" font-family="Arial, sans-serif" font-size="11" fill="#64748b">Progress: 75%</text>
  <rect x="50" y="150" width="100" height="4" rx="2" fill="#e2e8f0"/>
  <rect x="50" y="150" width="75" height="4" rx="2" fill="url(#primary)"/>
  <text x="50" y="170" font-family="Arial, sans-serif" font-size="10" fill="#64748b">Due: Nov 15</text>
  <text x="50" y="185" font-family="Arial, sans-serif" font-size="10" fill="#64748b">Team: 4 members</text>
  <text x="50" y="200" font-family="Arial, sans-serif" font-size="10" fill="#64748b">Tasks: 12/16</text>
  
  <rect x="220" y="100" width="160" height="120" rx="6" fill="#f8fafc" stroke="#e2e8f0"/>
  <rect x="220" y="100" width="160" height="30" rx="6 6 0 0" fill="#f59e0b"/>
  <text x="300" y="118" font-family="Arial, sans-serif" font-size="12" font-weight="bold" fill="white" text-anchor="middle">Mobile App</text>
  <text x="230" y="145" font-family="Arial, sans-serif" font-size="11" fill="#64748b">Progress: 45%</text>
  <rect x="230" y="150" width="100" height="4" rx="2" fill="#e2e8f0"/>
  <rect x="230" y="150" width="45" height="4" rx="2" fill="#f59e0b"/>
  <text x="230" y="170" font-family="Arial, sans-serif" font-size="10" fill="#64748b">Due: Dec 1</text>
  <text x="230" y="185" font-family="Arial, sans-serif" font-size="10" fill="#64748b">Team: 3 members</text>
  <text x="230" y="200" font-family="Arial, sans-serif" font-size="10" fill="#64748b">Tasks: 9/20</text>
  
  <rect x="400" y="100" width="160" height="120" rx="6" fill="#f8fafc" stroke="#e2e8f0"/>
  <rect x="400" y="100" width="160" height="30" rx="6 6 0 0" fill="url(#success)"/>
  <text x="480" y="118" font-family="Arial, sans-serif" font-size="12" font-weight="bold" fill="white" text-anchor="middle">Marketing</text>
  <text x="410" y="145" font-family="Arial, sans-serif" font-size="11" fill="#64748b">Progress: 90%</text>
  <rect x="410" y="150" width="100" height="4" rx="2" fill="#e2e8f0"/>
  <rect x="410" y="150" width="90" height="4" rx="2" fill="url(#success)"/>
  <text x="410" y="170" font-family="Arial, sans-serif" font-size="10" fill="#64748b">Due: Oct 30</text>
  <text x="410" y="185" font-family="Arial, sans-serif" font-size="10" fill="#64748b">Team: 2 members</text>
  <text x="410" y="200" font-family="Arial, sans-serif" font-size="10" fill="#64748b">Tasks: 18/20</text>
  
  <!-- Recent Activity -->
  <rect x="40" y="240" width="520" height="100" rx="6" fill="#f8fafc" stroke="#e2e8f0"/>
  <text x="50" y="260" font-family="Arial, sans-serif" font-size="14" font-weight="bold" fill="#1e293b">Recent Activity</text>
  <text x="50" y="280" font-family="Arial, sans-serif" font-size="11" fill="#64748b">• Sarah completed "Design Review" task</text>
  <text x="50" y="295" font-family="Arial, sans-serif" font-size="11" fill="#64748b">• Mike joined the Web Redesign project</text>
  <text x="50" y="310" font-family="Arial, sans-serif" font-size="11" fill="#64748b">• New referral: Alex signed up (+3 credits earned)</text>
  <text x="50" y="325" font-family="Arial, sans-serif" font-size="11" fill="#64748b">• Marketing project milestone reached</text>
  
  <!-- GrowthKit Share Button -->
  <rect x="450" y="300" width="100" height="25" rx="12" fill="url(#success)"/>
  <text x="500" y="315" font-family="Arial, sans-serif" font-size="11" font-weight="medium" fill="white" text-anchor="middle">Share & Earn</text>
  
  <!-- Placeholder Label -->
  <rect x="200" y="370" width="200" height="20" rx="4" fill="#f1f5f9" stroke="#cbd5e1"/>
  <text x="300" y="382" font-family="Arial, sans-serif" font-size="10" font-weight="medium" fill="#64748b" text-anchor="middle">PLACEHOLDER - TaskFlow Pro Screenshot</text>
</svg>
